#!OML:ASF F:\VICON\USERDATA\INSTALL\rory3\rory3.ASF
:FULLY-SPECIFIED
:DEGREES
1979
root 0.232586 17.8795 0.980249 8.97034 19.4099 1.20979
lowerback 10.2964 -0.188759 2.08501
upperback 1.31131 0.173437 3.56345
thorax -4.41519 0.0859496 2.51805
lowerneck -19.7486 -13.553 -13.4371
upperneck 14.1529 -17.2302 12.2616
head 9.98489 -7.5848 3.63962
rclavicle 4.8901e-014 -4.77083e-015
rhumerus 18.9121 -20.8171 -36.7894
rradius 57.449
rwrist 38.7526
rhand -68.1121 -25.8505
rfingers 7.12502
rthumb -39.8347 -51.1262
lclavicle 4.8901e-014 -4.77083e-015
lhumerus -43.1797 3.19739 74.1819
lradius 59.4605
lwrist -0.251725
lhand -21.8712 21.6825
lfingers 7.12502
lthumb 4.5331 51.614
rfemur -17.6934 -9.50239 17.1862
rtibia 32.5101
rfoot -24.7132 -15.1678
rtoes 5.47783
lfemur -15.6579 -7.81241 -10.0418
ltibia 16.7398
lfoot -7.46581 -0.259628
ltoes -26.8408
1980
root 0.267958 17.8785 0.983036 8.87592 19.2084 1.04694
lowerback 10.1835 -0.140157 1.98534
upperback 1.20285 0.227976 3.60924
thorax -4.46789 0.114793 2.61494
lowerneck -19.0021 -13.413 -13.6921
upperneck 14.0554 -17.0766 12.3803
head 9.83755 -7.5524 3.78378
rclavicle 1.55052e-014 0
rhumerus 17.6239 -19.0489 -36.7798
rradius 57.3245
rwrist 38.7565
rhand -67.9673 -24.3021
rfingers 7.12502
rthumb -39.6984 -49.6184
lclavicle 1.55052e-014 0
lhumerus -43.6527 3.15088 74.0727
lradius 59.5184
lwrist -0.100461
lhand -21.8395 21.8721
lfingers 7.12502
lthumb 4.56378 51.8029
rfemur -17.5487 -9.33828 17.2157
rtibia 32.3251
rfoot -24.6207 -15.198
rtoes 5.36863
lfemur -15.5508 -7.67248 -10.0222
ltibia 16.8231
lfoot -7.57985 -0.192546
ltoes -26.9269
1981
root 0.306437 17.8816 0.986901 8.79212 18.8986 0.945447
lowerback 10.0907 -0.0709365 1.90215
upperback 1.19969 0.305068 3.58789
thorax -4.42206 0.15393 2.62809
lowerneck -18.7622 -13.3654 -13.6869
upperneck 14.1213 -17.0292 12.2812
head 9.8015 -7.54995 3.76964
rclavicle -7.23576e-014 -2.54444e-014
rhumerus 16.5947 -17.3015 -36.9533
rradius 57.226
rwrist 39.1491
rhand -67.9705 -23.3264
rfingers 7.12502
rthumb -39.7014 -48.6418
lclavicle -7.23576e-014 -2.54444e-014
lhumerus -43.9236 3.19069 73.876
lradius 59.5065
lwrist 0.0563246
lhand -21.7348 21.8404
lfingers 7.12502
lthumb 4.66489 51.769
rfemur -17.3942 -9.13143 17.1471
rtibia 32.1179
rfoot -24.4952 -15.1348
rtoes 5.65986
lfemur -15.4301 -7.50245 -10.0868
ltibia 16.9765
lfoot -7.75584 -0.0924158
ltoes -26.8735
1982
root 0.347622 17.8866 0.988395 8.74283 18.4364 0.86548
lowerback 9.99703 0.0491723 1.83767
upperback 1.2086 0.45049 3.55
thorax -4.36529 0.226295 2.60411
lowerneck -18.7555 -13.3393 -13.6426
upperneck 14.3614 -16.9965 12.1125
head 9.85795 -7.54455 3.7109
rclavicle -2.46493e-014 -3.65764e-014
rhumerus 15.7338 -15.475 -37.1417
rradius 57.1945
rwrist 39.6785
rhand -68.1132 -22.0684
rfingers 7.12502
rthumb -39.8357 -47.3438
lclavicle -2.46493e-014 -3.65764e-014
lhumerus -44.1773 3.2424 73.7098
lradius 59.4997
lwrist 0.133389
lhand -21.7055 21.4455
lfingers 7.12502
lthumb 4.69311 51.3735
rfemur -17.2924 -8.81127 17.0263
rtibia 31.9054
rfoot -24.3316 -15.0609
rtoes 5.70084
lfemur -15.3054 -7.43456 -10.182
ltibia 17.1804
lfoot -7.96189 0.268723
ltoes -26.6241
1983
root 0.391555 17.8912 0.984912 8.71604 17.8582 0.801389
lowerback 9.87696 0.184098 1.75913
upperback 1.26379 0.613386 3.55174
thorax -4.24672 0.307898 2.62733
lowerneck -18.8736 -13.3 -13.6389
upperneck 14.6148 -16.9068 11.8939
head 9.93168 -7.5146 3.64583
rclavicle -2.70347e-014 -1.90833e-014
rhumerus 15.2912 -13.536 -37.29
rradius 57.1695
rwrist 40.33
rhand -68.0555 -20.0196
rfingers 7.12502
rthumb -39.7814 -45.3113
lclavicle -2.70347e-014 -1.90833e-014
lhumerus -44.3179 3.34111 73.6635
lradius 59.4571
lwrist 0.240733
lhand -21.5804 21.7238
lfingers 7.12502
lthumb 4.81397 51.6492
rfemur -17.2594 -8.47599 16.8625
rtibia 31.702
rfoot -24.0129 -15.0077
rtoes 5.26903
lfemur -15.1711 -7.32937 -10.3162
ltibia 17.3747
lfoot -8.15081 0.695139
ltoes -26.4785
1984
root 0.436176 17.8942 0.98055 8.6726 17.2049 0.752989
lowerback 9.77938 0.355868 1.70326
upperback 1.32098 0.827934 3.5391
thorax -4.14034 0.414507 2.61658
lowerneck -18.9295 -13.2933 -13.6693
upperneck 14.8035 -16.8572 11.6931
head 9.98244 -7.50751 3.58706
rclavicle 5.92378e-014 3.65764e-014
rhumerus 14.9854 -11.4561 -37.3061
rradius 57.3636
rwrist 40.9245
rhand -67.8183 -18.2761
rfingers 7.12502
rthumb -39.5581 -43.6339
lclavicle 5.92378e-014 3.65764e-014
lhumerus -44.3163 3.39458 73.6542
lradius 59.1897
lwrist 0.448948
lhand -21.6405 22.2569
lfingers 7.12502
lthumb 4.75586 52.1836
rfemur -17.2184 -8.16799 16.6696
rtibia 31.5339
rfoot -23.7434 -14.767
rtoes 5.36919
lfemur -14.9975 -7.13519 -10.4919
ltibia 17.5775
lfoot -8.36579 1.12492
ltoes -26.232
1985
root 0.482138 17.8965 0.975831 8.61904 16.4615 0.764958
lowerback 9.71066 0.557441 1.65076
upperback 1.3701 1.08039 3.4541
thorax -4.05847 0.539157 2.52395
lowerneck -18.9752 -13.2802 -13.6577
upperneck 15.0575 -16.8308 11.5433
head 10.0598 -7.50289 3.53515
rclavicle 1.82882e-014 -6.36111e-015
rhumerus 14.8007 -9.41623 -37.3436
rradius 57.691
rwrist 41.4515
rhand -67.6182 -16.5336
rfingers 7.12502
rthumb -39.3696 -41.9468
lclavicle 1.82882e-014 -6.36111e-015
lhumerus -44.283 3.37665 73.5484
lradius 58.7609
lwrist 0.448887
lhand -21.6426 22.1886
lfingers 7.12502
lthumb 4.7539 52.1153
rfemur -17.1745 -7.96008 16.4065
rtibia 31.374
rfoot -23.294 -14.4238
rtoes 5.46722
lfemur -14.8164 -6.80756 -10.7661
ltibia 17.8505
lfoot -8.57914 1.50112
ltoes -26.0768
1986
root 0.526662 17.8965 0.967053 8.54004 15.6217 0.765817
lowerback 9.64947 0.764665 1.54394
upperback 1.51132 1.33381 3.411
thorax -3.88678 0.665432 2.50653
lowerneck -19.3546 -13.2793 -13.6077
upperneck 15.4833 -16.8053 11.3872
head 10.2532 -7.47923 3.45797
rclavicle -2.38542e-014 -1.11319e-014
rhumerus 15.0964 -7.61433 -37.4775
rradius 57.9804
rwrist 42.1382
rhand -67.3519 -14.7721
rfingers 7.12502
rthumb -39.1186 -40.2581
lclavicle -2.38542e-014 -1.11319e-014
lhumerus -44.1691 3.53277 73.4575
lradius 58.3985
lwrist 0.304415
lhand -21.4743 22.05
lfingers 7.12502
lthumb 4.91642 51.973
rfemur -17.1422 -7.68932 16.1507
rtibia 31.1948
rfoot -22.769 -14.1604
rtoes 4.88847
lfemur -14.6392 -6.38331 -11.0378
ltibia 18.1869
lfoot -8.8216 1.86987
ltoes -25.8176
1987
root 0.571484 17.8968 0.958005 8.39387 14.7355 0.640234
lowerback 9.66448 0.953666 1.55525
upperback 1.64298 1.58121 3.42333
thorax -3.76629 0.787511 2.48135
lowerneck -19.6902 -13.2521 -13.6131
upperneck 15.8313 -16.7373 11.2909
head 10.4183 -7.43702 3.42064
rclavicle -2.38542e-015 -7.79236e-014
rhumerus 15.8119 -5.84628 -37.653
rradius 58.2393
rwrist 42.8296
rhand -67.1732 -13.4346
rfingers 7.12502
rthumb -38.9501 -38.9689
lclavicle -2.38542e-015 -7.79236e-014
lhumerus -44.1358 3.77692 73.354
lradius 58.0975
lwrist 0.19755
lhand -21.4684 22.0327
lfingers 7.12502
lthumb 4.92211 51.9555
rfemur -17.069 -7.2364 16.0072
rtibia 31.0043
rfoot -22.3994 -13.8077
rtoes 5.15393
lfemur -14.4265 -5.93154 -11.1848
ltibia 18.5373
lfoot -9.07152 2.28057
ltoes -25.5329
1988
root 0.619522 17.9003 0.947178 8.24871 13.8558 0.509746
lowerback 9.82184 1.16267 1.69383
upperback 1.61086 1.87764 3.38917
thorax -3.89143 0.931607 2.32663
lowerneck -19.5209 -13.1917 -13.6079
upperneck 15.9741 -16.6586 11.1461
head 10.4137 -7.42081 3.39265
rclavicle -2.0276e-014 1.27222e-014
rhumerus 16.536 -4.14388 -37.8229
rradius 58.4044
rwrist 43.5877
rhand -67.2497 -12.5152
rfingers 7.12502
rthumb -39.0223 -38.0288
lclavicle -2.0276e-014 1.27222e-014
lhumerus -44.2298 3.78744 73.2604
lradius 57.6163
lwrist 0.0366847
lhand -21.6473 21.6891
lfingers 7.12502
lthumb 4.74934 51.6159
rfemur -17.0274 -6.74186 15.8553
rtibia 30.8192
rfoot -22.0256 -13.5094
rtoes 5.07332
lfemur -14.2257 -5.49732 -11.3458
ltibia 18.8709
lfoot -9.24266 2.72767
ltoes -25.8383
1989
root 0.668968 17.9042 0.932946 8.19463 12.8608 0.506822
lowerback 9.9581 1.41535 1.74603
upperback 1.54873 2.21986 3.28109
thorax -4.03568 1.09846 2.13595
lowerneck -19.3213 -13.0988 -13.5578
upperneck 16.1448 -16.553 10.9969
head 10.406 -7.39104 3.36332
rclavicle 3.45885e-014 -1.74931e-014
rhumerus 17.3333 -2.63361 -37.9363
rradius 58.5688
rwrist 44.3068
rhand -67.2104 -10.1465
rfingers 7.12502
rthumb -38.9853 -35.6708
lclavicle 3.45885e-014 -1.74931e-014
lhumerus -44.2995 3.65791 73.136
lradius 57.0084
lwrist -0.178924
lhand -21.7861 21.3145
lfingers 7.12502
lthumb 4.6153 51.2442
rfemur -17.1159 -6.15038 15.5545
rtibia 30.6531
rfoot -21.6357 -13.3126
rtoes 4.61658
lfemur -14.0639 -4.93041 -11.6629
ltibia 19.1502
lfoot -9.36712 3.15894
ltoes -25.8332
